<svg width="96" height="96" viewBox="0 0 96 96" xmlns="http://www.w3.org/2000/svg" fill="none">
  <rect width="96" height="96" rx="20" fill="#0d1117"/>
  <g transform="translate(1, 16)">
    <path d="M36 36 C36 16 52 4 68 8 C80 11 84 20 80 30 C76 40 62 44 50 40 C42 37 36 36 36 36Z" fill="url(#gold1)"/>
    <path d="M36 36 C36 50 44 60 56 58 C64 57 68 50 64 44 C60 38 48 36 36 36Z" fill="url(#silver1)"/>
    <path d="M10 52 Q36 28 72 20" stroke="url(#gold2)" stroke-width="3.5" stroke-linecap="round"/>
  </g>
  <defs>
    <linearGradient id="gold1" x1="0%" y1="0%" x2="100%" y2="100%">
      <stop offset="0%" stop-color="#d4a843"/>
      <stop offset="50%" stop-color="#f0d080"/>
      <stop offset="100%" stop-color="#a07830"/>
    </linearGradient>
    <linearGradient id="silver1" x1="0%" y1="0%" x2="100%" y2="100%">
      <stop offset="0%" stop-color="#c0c0c0"/>
      <stop offset="50%" stop-color="#e8e8e8"/>
      <stop offset="100%" stop-color="#909090"/>
    </linearGradient>
    <linearGradient id="gold2" x1="0%" y1="0%" x2="100%" y2="0%">
      <stop offset="0%" stop-color="#a07830" stop-opacity="0"/>
      <stop offset="50%" stop-color="#f0d080"/>
      <stop offset="100%" stop-color="#a07830" stop-opacity="0"/>
    </linearGradient>
  </defs>
</svg>
